<?xml version="1.0" encoding="UTF-8" standalone="no"?><!DOCTYPE svg PUBLIC "-//W3C//DTD SVG 1.1//EN" "http://www.w3.org/Graphics/SVG/1.1/DTD/svg11.dtd"><svg width="100%" height="100%" viewBox="0 0 32 32" version="1.1" xmlns="http://www.w3.org/2000/svg" xmlns:xlink="http://www.w3.org/1999/xlink" xml:space="preserve" xmlns:serif="http://www.serif.com/" style="fill-rule:evenodd;clip-rule:evenodd;stroke-linejoin:round;stroke-miterlimit:2;"><path d="M32,3l0,26c0,1.656 -1.344,3 -3,3l-26,0c-1.656,0 -3,-1.344 -3,-3l0,-26c0,-1.656 1.344,-3 3,-3l26,0c1.656,0 3,1.344 3,3Z" style="fill:#0d0908;"/><g><path d="M6.321,19.919c-0.212,0.362 -0.297,0.656 -0.255,0.883c0.042,0.228 0.176,0.374 0.403,0.44l0.462,0.086c0.103,0.033 0.177,0.078 0.221,0.136c0.045,0.057 0.067,0.117 0.067,0.181c-0,0.11 -0.043,0.196 -0.127,0.26c-0.084,0.063 -0.202,0.095 -0.353,0.095l-2.572,0c-0.163,0 -0.285,-0.029 -0.366,-0.086c-0.081,-0.057 -0.122,-0.138 -0.122,-0.244c0,-0.097 0.037,-0.181 0.11,-0.251c0.073,-0.069 0.199,-0.142 0.378,-0.218c0.203,-0.062 0.411,-0.208 0.624,-0.436c0.213,-0.228 0.424,-0.533 0.634,-0.912l4.42,-7.188c0.647,-0.939 1.285,-1.63 1.913,-2.072c0.629,-0.442 1.26,-0.663 1.895,-0.663c0.226,-0 0.386,0.033 0.482,0.098c0.096,0.065 0.144,0.148 0.144,0.25c-0,0.08 -0.024,0.148 -0.072,0.204c-0.047,0.057 -0.123,0.104 -0.227,0.142c-0.217,0.056 -0.387,0.171 -0.51,0.345c-0.123,0.173 -0.189,0.425 -0.198,0.756c0,0.209 -0.003,0.498 -0.011,0.867c-0.007,0.37 -0.015,0.792 -0.024,1.267c-0.009,0.475 -0.018,0.975 -0.027,1.501c-0.01,0.526 -0.019,1.049 -0.028,1.571c-0.009,0.521 -0.016,1.013 -0.023,1.477c-0.006,0.463 -0.01,0.871 -0.012,1.221c-0.001,0.351 -0.002,0.616 -0.002,0.795c0.002,0.17 0.026,0.312 0.073,0.425c0.046,0.113 0.125,0.208 0.236,0.283c0.111,0.076 0.263,0.147 0.454,0.215c0.171,0.067 0.257,0.172 0.257,0.315c-0,0.096 -0.04,0.177 -0.119,0.241c-0.079,0.065 -0.198,0.097 -0.356,0.097l-3.439,-0c-0.124,-0 -0.217,-0.03 -0.279,-0.089c-0.062,-0.06 -0.093,-0.132 -0.093,-0.217c0,-0.086 0.031,-0.159 0.093,-0.218c0.062,-0.059 0.146,-0.107 0.252,-0.144l0.58,-0.129c0.173,-0.047 0.303,-0.135 0.389,-0.265c0.086,-0.129 0.132,-0.303 0.138,-0.519c0.006,-0.209 0.013,-0.497 0.022,-0.865c0.009,-0.369 0.019,-0.79 0.031,-1.263c0.011,-0.474 0.022,-0.976 0.034,-1.507c0.012,-0.53 0.024,-1.064 0.035,-1.6c0.012,-0.537 0.022,-1.05 0.031,-1.54c0.009,-0.49 0.017,-0.934 0.025,-1.33c0.007,-0.396 0.011,-0.715 0.011,-0.958l0.397,0.138c-0.097,0.058 -0.216,0.148 -0.357,0.271c-0.142,0.123 -0.302,0.288 -0.482,0.496c-0.181,0.207 -0.387,0.472 -0.619,0.795l-4.138,6.863Zm0.661,-1.831l0.214,-0.605l4.796,0l-0.058,0.605l-4.952,0Z" style="fill:#ede8dc;fill-rule:nonzero;"/><path d="M15.232,21.692c0,-0.087 0.035,-0.162 0.103,-0.223c0.069,-0.062 0.171,-0.108 0.305,-0.137l0.495,-0.094c0.101,-0.02 0.192,-0.058 0.274,-0.114c0.081,-0.056 0.158,-0.143 0.23,-0.261c0.072,-0.118 0.142,-0.279 0.21,-0.481c0.058,-0.244 0.139,-0.56 0.242,-0.949c0.104,-0.389 0.221,-0.823 0.351,-1.302c0.129,-0.48 0.266,-0.981 0.408,-1.505c0.143,-0.523 0.285,-1.046 0.427,-1.566c0.142,-0.521 0.273,-1.014 0.394,-1.479c0.12,-0.465 0.225,-0.882 0.314,-1.251c0.089,-0.368 0.153,-0.658 0.193,-0.87c0.043,-0.179 0.041,-0.314 -0.007,-0.404c-0.047,-0.09 -0.148,-0.151 -0.302,-0.184l-0.454,-0.112c-0.133,-0.037 -0.226,-0.077 -0.281,-0.123c-0.054,-0.045 -0.081,-0.11 -0.081,-0.194c-0,-0.106 0.041,-0.19 0.125,-0.251c0.083,-0.061 0.21,-0.092 0.38,-0.092l4.177,0c0.796,0 1.522,0.139 2.177,0.416c0.655,0.277 1.207,0.673 1.656,1.189c0.449,0.515 0.764,1.135 0.946,1.86c0.182,0.724 0.198,1.534 0.047,2.431c-0.162,0.95 -0.464,1.799 -0.905,2.544c-0.44,0.745 -0.991,1.374 -1.65,1.886c-0.66,0.512 -1.404,0.903 -2.233,1.171c-0.829,0.269 -1.719,0.403 -2.668,0.403l-4.482,0c-0.15,0 -0.253,-0.029 -0.308,-0.088c-0.055,-0.059 -0.083,-0.132 -0.083,-0.22Zm4.992,-0.397c0.664,-0 1.287,-0.116 1.868,-0.348c0.581,-0.232 1.106,-0.576 1.573,-1.031c0.468,-0.456 0.864,-1.014 1.188,-1.675c0.324,-0.66 0.557,-1.421 0.7,-2.281c0.147,-0.855 0.17,-1.606 0.067,-2.253c-0.102,-0.647 -0.297,-1.188 -0.583,-1.623c-0.286,-0.435 -0.632,-0.763 -1.038,-0.984c-0.405,-0.221 -0.839,-0.332 -1.3,-0.332l-0.816,0c-0.193,0 -0.353,0.057 -0.481,0.17c-0.128,0.114 -0.231,0.291 -0.308,0.534c-0.05,0.217 -0.124,0.513 -0.223,0.887c-0.1,0.374 -0.215,0.799 -0.347,1.275c-0.132,0.476 -0.272,0.979 -0.42,1.507c-0.148,0.529 -0.295,1.058 -0.44,1.588c-0.145,0.53 -0.281,1.035 -0.408,1.516c-0.127,0.48 -0.235,0.912 -0.324,1.296c-0.09,0.384 -0.152,0.689 -0.186,0.917c-0.047,0.285 -0.027,0.495 0.06,0.632c0.087,0.136 0.248,0.204 0.483,0.204l0.935,0Z" style="fill:#ede8dc;fill-rule:nonzero;"/></g></svg>